<?xml version="1.0" encoding="utf-8"?>
<!-- Generator: Adobe Illustrator 23.0.2, SVG Export Plug-In . SVG Version: 6.00 Build 0)  -->
<svg version="1.1" id="Layer_1" xmlns="http://www.w3.org/2000/svg" xmlns:xlink="http://www.w3.org/1999/xlink" x="0px" y="0px"
	 viewBox="0 0 1000 1000" style="enable-background:new 0 0 1000 1000;" xml:space="preserve">
<style type="text/css">
	.st0{fill:#216E61;}
</style>
<g>
	<g>
		<path class="st0" d="M348.47,659.33c-14.1-12.89-26.5-27.62-36.79-43.82c-1.39,1.01-2.96,1.79-4.64,2.26
			c8.69,13.75,18.96,26.64,30.75,38.42c2.31,2.31,4.68,4.56,7.07,6.76C345.84,661.54,347.07,660.32,348.47,659.33z"/>
		<path class="st0" d="M712.11,465.12l-4.94,0.78c1.78,11.19,2.68,22.66,2.68,34.09c0,119.04-96.84,215.88-215.88,215.88
			c-40.86,0-79.09-11.42-111.69-31.22c-0.47,1.68-1.24,3.26-2.25,4.65c34.04,20.58,73.15,31.57,113.95,31.57
			c59,0,114.47-22.98,156.19-64.69C691.88,614.47,714.85,559,714.85,500C714.85,488.31,713.93,476.57,712.11,465.12z"/>
		<path class="st0" d="M288.96,567.65c-7.04-21.29-10.87-44.03-10.87-67.65c0-119.04,96.84-215.88,215.88-215.88
			c71.26,0,137.88,35.14,178.22,94.01l4.13-2.83c-41.27-60.23-109.43-96.18-182.34-96.18c-59,0-114.47,22.98-156.19,64.69
			S273.09,441,273.09,500c0,24.07,3.83,47.55,11.19,69.75C285.69,568.78,287.27,568.07,288.96,567.65z"/>
	</g>
	<g>
		<path class="st0" d="M650.59,508.39c-4.39,83.25-73.18,148.46-156.62,148.46c-4.82,0-9.59-0.23-14.3-0.66
			c0.09,0.65,0.16,1.32,0.16,1.99c0,1.03-0.12,2.04-0.34,3.01c4.77,0.43,9.6,0.65,14.48,0.65c86.1,0,157.09-67.29,161.62-153.19
			L650.59,508.39z"/>
		<path class="st0" d="M348.65,428.86c-8.42,17.14-13.92,35.97-15.79,55.84c0.29-0.02,0.58-0.05,0.88-0.05
			c1.41,0,2.79,0.22,4.09,0.62c1.8-19.24,7.1-37.47,15.25-54.08C351.16,430.94,349.68,430.08,348.65,428.86z"/>
		<path class="st0" d="M493.97,338.16c-54.28,0-102.39,26.86-131.76,67.99c1.8,0.51,3.12,1.62,3.98,3.03
			c28.46-39.93,75.13-66.02,127.78-66.02c43.14,0,83.34,17.15,113.21,48.29l3.61-3.46C579.97,355.85,538.48,338.16,493.97,338.16z"
			/>
	</g>
	<g>
		<g>
			<g>
				<g>
					<path class="st0" d="M721.96,393.64c-8.65-3.09-17.53-5.19-26.69-6.13c-16.8-1.72-33.08-0.43-48.99,3.08
						c-0.89,0.19-1.78,0.4-2.68,0.61c-1.03,0.24-2.06,0.5-3.07,0.76c0,0-0.05,0.01-0.15,0.04l-0.73,0.18
						c-0.12,0.02-0.24,0.06-0.38,0.1c-9.78,2.57-19.42,5.92-28.95,9.88c-1.91,0.8-4.7,1.82-7.36,2.95
						c-15.83,6.41-30.79,13.61-48.84,26.49c0.72-0.69,15.77-18.2,34.7-28.81c-7.34-0.99-14.7-1.88-22.01-3.15
						c-8.34-1.46-15.61-0.69-22.62,4.88c-11.35,9.06-23.45,17.19-34.97,26.06c-20.96,16.09-40.88,33.43-59.34,52.36
						c-1.82,1.88-4.4,3.92-2.9,6.89c1.38,2.75,4.4,1.45,6.69,1.28c8.47-0.61,16.92-1.46,25.38-2.17c2.1-0.18,4.73-1.59,6.08,0.97
						c1.34,2.53-1.03,4.3-2.61,5.58c-5.54,4.46-6.82,10.01-5.4,16.69c2.21,10.47,6.24,20.01,13.45,28.07
						c5.95,6.67,11.97,12.88,22.27,9.15c1.65-0.6,4.24-1.28,5.38,1.1c0.95,1.95-0.97,3.3-1.98,4.63
						c-5.82,7.65-11.76,15.22-17.62,22.84c-0.94,1.21-2.25,2.48-1.54,4.17c0.85,2,2.81,2.02,4.63,1.89
						c1.55-0.11,3.09-0.38,4.61-0.69c41.05-8.43,80.43-22.14,119.11-37.97c3.37-1.37,6.73-2.97,8.38-6.34
						c4.6-9.32,8.94-18.76,14.12-29.68c-4.6,1.89-9.16,3.68-13.71,5.35l-0.01,0c-1.8,0.67-3.59,1.31-5.4,1.94l-0.01,0
						c-5.59,1.96-11.15,3.74-16.75,5.35c-8,2.33-16.03,4.31-24.18,5.96c-2.69,0.54-5.4,1.05-8.13,1.52
						c1.31-1.93,3.01-2.56,4.67-3.06c0.69-0.21,1.37-0.38,2-0.62c6.54-2.39,13.04-4.87,19.47-7.48c4.59-1.85,9.15-3.78,13.66-5.79
						c6.59-2.93,13.09-6.03,19.48-9.37c5.64-2.94,11.17-6.05,16.6-9.37c4.76-2.91,9.43-5.96,14.02-9.21c0.66-0.47,1.3-0.92,1.94-1.4
						c4.54-3.3,8.89-6.74,13.01-10.38c4.12-3.59,8.02-7.37,11.66-11.32c14.74-15.95,25.48-34.79,30.97-57.41
						C728.58,398.56,727.01,395.43,721.96,393.64z M664.87,425.55l-4.8,2.6l-4.88,2.65c3.98,9.56,10.34,19.4,20.51,27.04
						c1.5,1.13,1.45,3.38-0.11,4.41c-0.46,0.31-1.02,0.46-1.56,0.45c-0.54-0.01-1.07-0.19-1.52-0.52
						c-10.9-8.17-17.75-18.62-22.04-28.81l-7.66,4.15l-4.73,2.56c1.55,2.15,2.59,4.69,2.92,7.49c0.49,4.19-0.67,8.21-3,11.36
						c-1.09,1.49-2.43,2.8-3.98,3.84c-1.59,1.08-3.37,1.88-5.31,2.33c3,3.67,6.51,7.12,10.65,10.23c1.53,1.15,1.49,3.46-0.11,4.51
						l0,0c-0.96,0.62-2.21,0.61-3.13-0.08c-5.79-4.33-10.47-9.31-14.23-14.56l-0.01,0c-5.35-1.06-9.83-4.8-11.81-9.92l-4.74,2.57
						l-5.27,2.85l-4.74,2.58c0.96,1.31,1.6,2.88,1.79,4.6c0.16,1.27,0.06,2.51-0.27,3.68c-0.52,2-1.68,3.79-3.26,5.08
						c-1.41,1.17-3.17,1.95-5.11,2.19c-0.05,0.01-0.11,0.01-0.16,0.01c0.27,0.4,0.54,0.79,0.82,1.18c0.54,0.79,1.13,1.56,1.73,2.33
						c0.56,0.71,1.13,1.41,1.72,2.11c1.99,2.32,4.19,4.55,6.64,6.66c0.79,0.68,1.61,1.36,2.45,2.01c0.4,0.31,0.8,0.61,1.21,0.92
						l0.02,0.01c1.3,0.94,1.26,2.89-0.09,3.77l-0.81,0.53c-0.79,0.52-1.84,0.5-2.6-0.06c-8.83-6.54-15.07-14.55-19.49-22.75
						c-0.76-0.85-1.37-1.85-1.78-2.93l-4.75,2.57l-8.99,4.87l-4.88,2.65l-4.97,2.7c0.27,0.6,0.55,1.2,0.84,1.8
						c0.09,0.2,0.2,0.39,0.29,0.58c0.2,0.4,0.4,0.81,0.61,1.21c0.12,0.23,0.25,0.47,0.37,0.7c0.19,0.36,0.39,0.73,0.59,1.09
						c0.14,0.25,0.28,0.49,0.42,0.74c0.2,0.35,0.4,0.7,0.61,1.04c0.15,0.25,0.3,0.5,0.46,0.76c0.21,0.34,0.42,0.68,0.64,1.02
						c0.16,0.25,0.32,0.5,0.49,0.75c0.22,0.34,0.45,0.68,0.69,1.02c0.17,0.25,0.34,0.49,0.51,0.74c0.24,0.35,0.49,0.69,0.75,1.03
						c0.17,0.23,0.34,0.47,0.52,0.7c0.28,0.37,0.56,0.73,0.85,1.09c0.16,0.2,0.32,0.41,0.48,0.61c0.39,0.49,0.8,0.97,1.21,1.45
						c0.07,0.08,0.13,0.15,0.19,0.23c0.48,0.55,0.97,1.1,1.48,1.64c0.16,0.17,0.32,0.33,0.48,0.5c0.36,0.37,0.72,0.75,1.08,1.12
						c0.2,0.2,0.42,0.4,0.62,0.6c0.34,0.32,0.67,0.65,1.02,0.97c0.23,0.21,0.47,0.43,0.71,0.64c0.34,0.3,0.67,0.6,1.02,0.9
						c0.25,0.21,0.5,0.43,0.76,0.64c0.35,0.29,0.7,0.58,1.06,0.86c0.26,0.21,0.53,0.42,0.8,0.62c0.13,0.1,0.26,0.21,0.4,0.31
						c1.24,0.95,1.57,2.76,0.59,3.97c-0.96,1.17-2.62,1.35-3.76,0.5c-10.36-7.75-17.14-17.53-21.56-27.23l-46.51,25.24
						c0,0-0.37-0.45-0.87-1.28c-3.81-6.34-2.71-14.45,2.37-19.82c0.77-0.83,1.56-1.64,2.36-2.45
						c10.86-11.25,22.64-21.47,34.84-31.24c0.92-0.74,1.84-1.47,2.76-2.2c0.8-0.63,1.59-1.26,2.4-1.89
						c1.78-1.39,3.56-2.78,5.36-4.14c1.86-1.42,3.74-2.81,5.61-4.19c3.78-2.78,7.58-5.5,11.45-8.12c1.76-1.21,3.53-2.39,5.32-3.55
						c1.82-1.18,3.66-2.34,5.5-3.49c1.87-1.16,3.77-2.3,5.66-3.41c6.6-3.88,13.37-7.48,20.35-10.71c1.8-0.84,3.6-1.66,5.44-2.43
						c1.49-0.65,2.99-1.28,4.5-1.88c2.2-0.9,4.41-1.75,6.65-2.55c4.33-1.57,8.72-3,13.21-4.26c2.46-0.69,4.93-1.33,7.4-1.91
						c1.77-0.43,3.53-0.81,5.3-1.16c1.78-0.39,3.58-0.72,5.37-1.02c1.78-0.29,3.56-0.57,5.34-0.81c13.5-1.83,27.13-1.88,40.91,0.16
						c1.71,0.26,3.66,0.04,5.02,2.64L664.87,425.55z"/>
				</g>
			</g>
			<g>
				<path class="st0" d="M646.35,446.93c-0.41-3.46-1.65-6.68-3.53-9.43c-3.77-5.6-10.13-9.32-17.22-9.5
					c-1.01-0.02-2.04,0.02-3.05,0.14c-1.28,0.16-2.54,0.41-3.74,0.78c-1.87,0.56-3.62,1.36-5.25,2.4c-2.01,1.28-3.82,2.9-5.33,4.84
					c-3.55,4.5-5.14,10.1-4.46,15.79c0.24,2.06,0.79,4.04,1.59,5.89c3.23,7.54,10.65,12.83,19.15,13.04
					c1.02,0.03,2.04-0.03,3.07-0.14c1.78-0.21,3.5-0.64,5.13-1.26c1.82-0.68,3.52-1.62,5.08-2.78c1.53-1.12,2.91-2.45,4.12-3.98
					C645.43,458.23,647.02,452.62,646.35,446.93z M634.04,462.76c-1.59,1.08-3.37,1.88-5.31,2.33c-0.58,0.13-1.19,0.24-1.8,0.32
					c-7.43,0.86-14.27-3.47-16.85-10.13c-0.49-1.24-0.82-2.56-0.99-3.95c-0.67-5.63,1.67-10.94,5.76-14.29
					c1.48-1.23,3.2-2.19,5.1-2.82c1.02-0.35,2.1-0.59,3.22-0.73c6.01-0.71,11.63,1.99,14.93,6.58c1.55,2.15,2.59,4.69,2.92,7.49
					C641.74,453.73,638.87,459.5,634.04,462.76z"/>
			</g>
			<g>
				<path class="st0" d="M602.46,467.25c-0.28-2.4-1.12-4.62-2.39-6.55c-2.67-4.06-7.24-6.77-12.34-6.89
					c-0.73-0.02-1.45,0.02-2.18,0.11c-0.73,0.09-1.43,0.22-2.12,0.4c-1.89,0.5-3.64,1.35-5.14,2.48c-4.24,3.13-6.74,8.41-6.07,14.03
					c0.18,1.54,0.58,3,1.18,4.34c2.33,5.26,7.57,8.95,13.55,9.1c0.73,0.02,1.45-0.02,2.18-0.11c0.96-0.11,1.88-0.32,2.77-0.58
					c1.86-0.59,3.53-1.51,5-2.69C600.84,477.72,603.1,472.64,602.46,467.25z M593.6,476.64c-1.41,1.17-3.17,1.95-5.11,2.19
					c-0.05,0.01-0.11,0.01-0.16,0.01l-0.01,0c-4.49,0.47-8.62-2.19-10.17-6.23c-0.29-0.76-0.5-1.56-0.6-2.41
					c-0.36-2.95,0.64-5.76,2.5-7.8c1.28-1.41,2.99-2.45,4.95-2.92c0.38-0.11,0.77-0.18,1.17-0.23c3.68-0.45,7.13,1.21,9.15,4.03
					c0.96,1.31,1.6,2.88,1.79,4.6C597.54,471.33,596.1,474.59,593.6,476.64z"/>
			</g>
			<g>
				<g>
					<path class="st0" d="M683.85,456.85l-2.75,4.61c-0.76-0.45-1.48-0.91-2.2-1.39c-12.08-7.91-19.33-18.76-23.71-29.28
						c-4.57-11.04-5.96-21.72-6.34-28.26c-0.22-3.67-0.12-6.04-0.1-6.44l5.36,0.25c0,0.09-0.08,2.01,0.11,5.16
						c0.35,5.9,1.59,16.09,5.85,26.64C664.32,438.65,671.55,449.5,683.85,456.85z"/>
				</g>
			</g>
			<g>
				<g>
					<path class="st0" d="M618.8,428.93c0.31,1.69,0.69,3.46,1.15,5.28c-1.9,0.63-3.61,1.59-5.1,2.82c-0.52-1.98-0.95-3.88-1.3-5.7
						c-1.52-7.64-1.75-13.91-1.76-17.03c0-1.16,0.03-1.89,0.04-2.1l4.46,0.22l1.02,0.05C617.31,412.64,617.06,419.52,618.8,428.93z"
						/>
				</g>
				<g>
					<path class="st0" d="M647.72,474.31l-2.82,4.72c-0.77-0.46-1.52-0.92-2.25-1.41c-3.77-2.46-7.06-5.2-9.96-8.12
						c-1.42-1.43-2.74-2.89-3.96-4.4c1.95-0.45,3.73-1.25,5.31-2.33c1.16,1.36,2.41,2.68,3.73,3.95
						C640.66,469.51,643.96,472.06,647.72,474.31z"/>
				</g>
			</g>
			<g>
				<g>
					<path class="st0" d="M583.43,454.32c0.46,1.69,0.98,3.41,1.58,5.16c-1.96,0.46-3.67,1.51-4.95,2.92
						c-0.68-1.9-1.26-3.77-1.77-5.59c-2.68-9.47-3.31-17.82-3.44-22.46c-0.05-2.14,0.01-3.48,0.01-3.78l5.49,0.26c0,0,0,0.01,0,0.03
						C580.32,431.48,580.03,441.77,583.43,454.32z"/>
				</g>
				<g>
					<path class="st0" d="M610.75,492.65l-2.82,4.72c-0.77-0.46-1.52-0.92-2.25-1.41c-0.42-0.28-0.83-0.56-1.24-0.82
						c-0.53-0.36-1.03-0.74-1.53-1.1c-0.41-0.31-0.82-0.61-1.21-0.92c-0.84-0.65-1.66-1.33-2.45-2.01c-2.45-2.1-4.65-4.34-6.64-6.66
						c-0.23-0.29-0.48-0.58-0.7-0.86c-0.35-0.41-0.69-0.82-1.02-1.25c-0.6-0.77-1.19-1.53-1.73-2.33c-0.27-0.38-0.55-0.78-0.82-1.18
						c0.05,0,0.11,0,0.16-0.01c1.94-0.23,3.69-1.01,5.11-2.19c1.01,1.45,2.11,2.87,3.3,4.26
						C600.61,485.29,605.17,489.33,610.75,492.65z"/>
				</g>
			</g>
			<g>
				<g>
					<path class="st0" d="M582.88,509.77l-2.82,4.72c-0.77-0.46-1.51-0.92-2.24-1.4c-11.49-7.53-18.72-17.65-23.27-27.7
						c-5.43-12.02-7.02-23.92-7.45-31.06c-0.23-3.8-0.14-6.24-0.12-6.66l5.49,0.26c0,0.05-0.03,0.86-0.02,2.26
						c0.1,5.23,0.99,18.79,7.06,32.5C563.97,492.71,571.18,502.79,582.88,509.77z"/>
				</g>
			</g>
		</g>
		<g>
			<path class="st0" d="M489.47,577.88c-1.26,1.57-5.12,6.34-2.47,12.62c0.46,1.06,2.91,5.97,6.18,10.67l-27.73-1.22l1.02,64.88
				l-47.23-47.2l-67.01,78.47l17.55-95.84L251.2,610.74l98.1-55.82l-68.05-55.17l92.06,11.59l-21.07-107.17l71.72,93.75l9.24-7.88
				c0.2,1.14,0.59,2.34,1.23,3.59c2.03,4.02,5.81,6.39,10.38,6.51c1.6,0.04,3.02-0.19,4.06-0.37c0.28-0.05,0.57-0.11,0.81-0.14
				c5.62-0.4,11.3-0.91,16.79-1.41c0.14-0.01,0.27-0.02,0.41-0.03c-0.6,1.29-1.09,2.64-1.42,4.05
				c-15.21,14.59-30.19,28.72-43.61,41.35c-9.2,8.67-18.7,17.35-27.89,25.76c-4.19,3.84-8.38,7.67-12.56,11.52
				c-2.15,1.96-2.44,5.24-0.7,7.56l1.3,1.73c1.06,1.42,2.68,2.22,4.39,2.26c0.5,0.01,0.99-0.03,1.49-0.16c0,0,1.84-0.45,2.38-0.59
				c11.6-2.76,23.19-5.55,34.79-8.35c22.06-5.31,44.67-10.76,67.27-15.95l3.06,2.84c-1.9,2.46-3.79,4.89-5.65,7.33L489.47,577.88z"
				/>
		</g>
		<g>
			<g>
				<path class="st0" d="M324.32,442.22l2.5,0.65l-0.15,0.59l-0.68,2.63l-0.65,2.51c-0.13,0.5-0.34,0.89-0.63,1.19
					c-0.29,0.3-0.65,0.52-1.08,0.66l-11.52,3.9c-0.43,0.15-0.76,0.34-0.99,0.59c-0.23,0.25-0.42,0.66-0.57,1.22l-0.56,2.14
					l7.79,2.03c0.23-0.5,0.41-0.9,0.55-1.19c0.13-0.29,0.23-0.49,0.28-0.6c0.05-0.11,0.09-0.19,0.12-0.25
					c0.34-0.67,0.87-0.91,1.61-0.72l2.5,0.65l-0.84,3.21l-1.49,5.72l-0.84,3.22l-2.5-0.65c-0.73-0.19-1.09-0.66-1.05-1.41
					c0.01-0.06,0.01-0.16,0.02-0.28c0.01-0.12,0.03-0.34,0.05-0.66c0.02-0.32,0.06-0.76,0.1-1.31l-22.3-5.8
					c-0.23,0.51-0.41,0.91-0.55,1.2c-0.13,0.29-0.23,0.49-0.28,0.6c-0.05,0.11-0.09,0.2-0.12,0.25c-0.34,0.67-0.87,0.91-1.61,0.72
					l-2.5-0.65l0.84-3.22l2.36-9.07c0.55-2.09,1.23-3.83,2.05-5.22c0.82-1.38,1.74-2.45,2.77-3.2c1.03-0.75,2.14-1.21,3.34-1.38
					c1.2-0.16,2.45-0.08,3.75,0.26c1.03,0.27,1.97,0.67,2.81,1.22c0.84,0.55,1.56,1.2,2.17,1.97c0.6,0.77,1.08,1.65,1.42,2.64
					c0.35,0.99,0.55,2.07,0.61,3.23c0.6-0.62,1.35-1.09,2.25-1.41l8.39-2.98c0.23-0.51,0.42-0.92,0.56-1.26
					c0.14-0.33,0.25-0.57,0.31-0.72c0.06-0.15,0.1-0.25,0.13-0.31C323.05,442.27,323.58,442.03,324.32,442.22z M306.46,448.79
					c-0.34-0.64-0.8-1.17-1.39-1.6c-0.59-0.42-1.27-0.74-2.05-0.94c-1.56-0.41-2.89-0.2-3.99,0.61c-1.1,0.81-1.93,2.27-2.48,4.38
					l-0.87,3.35l10.2,2.65l0.85-3.27c0.28-1.08,0.39-2.05,0.33-2.92C307,450.18,306.8,449.43,306.46,448.79z"/>
			</g>
			<g>
				<path class="st0" d="M316.53,411.72c0.92-0.88,1.96-1.53,3.12-1.93c1.16-0.41,2.41-0.55,3.76-0.45
					c1.35,0.11,2.76,0.51,4.23,1.21c0.37,0.18,0.67,0.34,0.9,0.49c0.23,0.15,0.39,0.3,0.49,0.45c0.1,0.15,0.14,0.31,0.13,0.49
					c-0.01,0.18-0.07,0.37-0.18,0.6l-5.98,12.57c2.16,0.85,3.96,1.01,5.4,0.5c1.44-0.51,2.55-1.58,3.32-3.19
					c0.38-0.79,0.61-1.52,0.7-2.18c0.09-0.66,0.12-1.26,0.1-1.8c-0.02-0.54-0.05-1.01-0.08-1.42c-0.03-0.41,0.02-0.77,0.17-1.07
					c0.09-0.2,0.21-0.35,0.36-0.46c0.15-0.11,0.32-0.18,0.52-0.22l2.46-0.58c0.38,0.84,0.62,1.71,0.73,2.58
					c0.11,0.88,0.12,1.74,0.03,2.6c-0.09,0.86-0.26,1.69-0.52,2.5c-0.26,0.81-0.55,1.57-0.89,2.29c-0.67,1.41-1.53,2.62-2.58,3.61
					c-1.05,0.99-2.24,1.72-3.59,2.18c-1.35,0.46-2.82,0.63-4.42,0.5c-1.6-0.13-3.29-0.62-5.08-1.47c-1.39-0.66-2.59-1.5-3.6-2.54
					c-1.01-1.03-1.77-2.18-2.27-3.45c-0.51-1.27-0.74-2.64-0.69-4.1c0.05-1.46,0.43-2.95,1.15-4.47
					C314.84,413.69,315.61,412.6,316.53,411.72z M317.41,420.47c0.42,1.19,1.32,2.25,2.7,3.18l4.37-9.2c-0.64-0.3-1.27-0.5-1.92-0.6
					c-0.64-0.09-1.26-0.06-1.85,0.09c-0.59,0.16-1.14,0.45-1.64,0.87c-0.5,0.43-0.93,1-1.27,1.73
					C317.11,417.97,316.98,419.28,317.41,420.47z"/>
			</g>
			<g>
				<path class="st0" d="M364.86,375.51l2.03,1.59l-2.05,2.62L361.5,384l-11.3-8.83c-1.13-0.88-2.17-1.3-3.13-1.25
					s-1.81,0.55-2.56,1.51c-0.34,0.44-0.59,0.9-0.73,1.4c-0.14,0.49-0.18,0.99-0.12,1.49c0.06,0.51,0.24,1,0.54,1.5
					c0.3,0.49,0.73,0.96,1.28,1.39l7.87,6.15c0.41-0.37,0.74-0.67,0.98-0.88c0.24-0.22,0.4-0.36,0.5-0.44
					c0.09-0.08,0.16-0.14,0.21-0.19c0.58-0.48,1.16-0.49,1.76-0.02l2.03,1.59l-2.05,2.62l-3.35,4.29l-11.3-8.83
					c-1.19-0.93-2.24-1.37-3.16-1.31c-0.92,0.06-1.74,0.55-2.47,1.48c-0.48,0.61-0.77,1.3-0.89,2.08c-0.11,0.78-0.09,1.6,0.09,2.48
					l9.57,7.48c0.41-0.37,0.74-0.66,0.98-0.88c0.24-0.21,0.4-0.36,0.49-0.44c0.09-0.08,0.16-0.14,0.21-0.19
					c0.57-0.48,1.16-0.49,1.76-0.02l2.03,1.59l-2.05,2.62l-3.34,4.27l-2.05,2.62l-2.03-1.59c-0.6-0.47-0.73-1.04-0.41-1.71
					c0.03-0.06,0.07-0.14,0.13-0.25c0.05-0.11,0.16-0.31,0.31-0.59c0.15-0.28,0.36-0.67,0.62-1.17l-10.89-8.51
					c-0.41,0.37-0.74,0.67-0.98,0.88c-0.24,0.21-0.41,0.36-0.5,0.44c-0.09,0.08-0.16,0.14-0.21,0.19c-0.58,0.48-1.16,0.49-1.76,0.02
					l-2.03-1.59l2.05-2.62l2.04-2.61c0.43-0.55,0.98-0.71,1.63-0.48l1.53,0.75c-0.1-0.58-0.17-1.16-0.19-1.72
					c-0.02-0.57,0.01-1.12,0.11-1.67c0.1-0.55,0.25-1.09,0.48-1.63c0.23-0.54,0.55-1.08,0.96-1.6c0.88-1.12,1.9-1.8,3.07-2.05
					c1.17-0.25,2.4-0.16,3.68,0.27c-0.37-0.74-0.61-1.48-0.7-2.22c-0.1-0.74-0.08-1.47,0.04-2.17c0.12-0.7,0.34-1.38,0.65-2.04
					c0.31-0.66,0.69-1.27,1.13-1.84c0.77-0.98,1.6-1.73,2.49-2.26c0.9-0.53,1.83-0.82,2.82-0.89c0.98-0.07,2,0.09,3.04,0.47
					c1.04,0.38,2.1,0.99,3.17,1.82l7.87,6.15c0.41-0.37,0.74-0.67,0.98-0.88c0.24-0.21,0.4-0.36,0.5-0.44
					c0.09-0.08,0.16-0.14,0.21-0.19C363.67,375.05,364.26,375.04,364.86,375.51z"/>
			</g>
			<g>
				<path class="st0" d="M372.49,343.86c1.4-0.44,2.8-0.58,4.17-0.42c1.38,0.16,2.72,0.64,4.04,1.42c1.31,0.78,2.53,1.86,3.64,3.24
					c1.13,1.39,1.94,2.8,2.43,4.25c0.49,1.45,0.69,2.87,0.57,4.26c-0.11,1.39-0.53,2.73-1.25,4.01c-0.72,1.28-1.74,2.46-3.04,3.52
					c-1.31,1.06-2.67,1.82-4.08,2.26c-1.41,0.45-2.81,0.58-4.2,0.41c-1.39-0.17-2.75-0.65-4.07-1.42c-1.32-0.78-2.54-1.86-3.67-3.25
					c-1.12-1.38-1.92-2.79-2.41-4.24c-0.49-1.45-0.67-2.87-0.54-4.26c0.13-1.39,0.56-2.72,1.28-4.01c0.73-1.29,1.74-2.46,3.05-3.53
					C369.73,345.06,371.09,344.31,372.49,343.86z M382.47,356.82c-0.09-1.54-0.91-3.26-2.44-5.15c-1.53-1.89-3.05-3.04-4.55-3.46
					c-1.5-0.42-2.98-0.04-4.44,1.14c-1.48,1.2-2.17,2.58-2.06,4.15c0.1,1.57,0.91,3.29,2.44,5.16c1.52,1.88,3.03,3.02,4.54,3.43
					c1.5,0.41,2.99,0.02,4.47-1.18C381.88,359.73,382.56,358.36,382.47,356.82z"/>
			</g>
			<g>
				<path class="st0" d="M403.26,348.05c-1.46-0.44-2.68-1.5-3.65-3.19l-6.25-10.92l-1.98,1.13c-0.25,0.14-0.52,0.19-0.8,0.13
					c-0.28-0.06-0.51-0.26-0.7-0.58l-1.07-1.87l2.85-2.32l-2.06-5.9c-0.1-0.28-0.09-0.55,0.01-0.79c0.1-0.24,0.3-0.45,0.58-0.61
					l2.44-1.4l3.52,6.16l5.15-2.95l1.92,3.36l-5.15,2.94l6.07,10.6c0.35,0.61,0.77,1,1.27,1.17c0.5,0.17,1.01,0.11,1.51-0.18
					c0.29-0.17,0.52-0.34,0.67-0.53c0.16-0.18,0.29-0.35,0.39-0.51c0.1-0.16,0.19-0.31,0.27-0.44c0.07-0.14,0.17-0.24,0.28-0.3
					c0.14-0.08,0.27-0.11,0.4-0.09c0.13,0.02,0.28,0.07,0.47,0.15l2.72,1.48c-0.36,0.97-0.9,1.85-1.62,2.65
					c-0.72,0.8-1.56,1.47-2.51,2.02C406.3,348.22,404.73,348.49,403.26,348.05z"/>
			</g>
			<g>
				<path class="st0" d="M428.48,313.37c1.28,0.01,2.47,0.28,3.58,0.81c1.11,0.52,2.11,1.29,3,2.32c0.89,1.02,1.61,2.3,2.17,3.83
					c0.14,0.38,0.24,0.71,0.3,0.98c0.06,0.27,0.07,0.49,0.03,0.67c-0.04,0.18-0.12,0.32-0.25,0.44c-0.13,0.12-0.31,0.22-0.54,0.3
					l-13.08,4.79c0.95,2.12,2.11,3.5,3.5,4.14c1.39,0.65,2.92,0.66,4.6,0.05c0.83-0.3,1.5-0.66,2.03-1.07
					c0.53-0.41,0.97-0.82,1.33-1.21c0.36-0.4,0.68-0.75,0.94-1.07c0.27-0.32,0.56-0.53,0.87-0.65c0.21-0.08,0.4-0.1,0.58-0.07
					c0.18,0.03,0.35,0.1,0.52,0.21l2.17,1.31c-0.32,0.87-0.75,1.65-1.29,2.36c-0.54,0.7-1.14,1.33-1.8,1.88
					c-0.67,0.55-1.37,1.02-2.12,1.42c-0.75,0.4-1.5,0.74-2.24,1.01c-1.47,0.54-2.93,0.8-4.37,0.77c-1.44-0.03-2.81-0.34-4.09-0.96
					c-1.28-0.61-2.45-1.53-3.51-2.74c-1.05-1.21-1.92-2.75-2.6-4.6c-0.53-1.44-0.79-2.89-0.79-4.33c0-1.45,0.27-2.8,0.8-4.06
					c0.53-1.26,1.32-2.4,2.38-3.41s2.38-1.8,3.96-2.38C425.9,313.59,427.2,313.35,428.48,313.37z M422.98,320.22
					c-0.53,1.15-0.63,2.53-0.3,4.16l9.57-3.5c-0.24-0.66-0.56-1.25-0.95-1.77c-0.39-0.52-0.86-0.93-1.39-1.24
					c-0.53-0.3-1.13-0.48-1.78-0.53c-0.66-0.05-1.36,0.06-2.12,0.34C424.52,318.23,423.51,319.08,422.98,320.22z"/>
			</g>
			<g>
				<path class="st0" d="M497.85,321.24l0.15,2.58l-0.61,0.04l-2.71,0.16l-2.59,0.16c-0.51,0.03-0.95-0.05-1.32-0.23
					c-0.37-0.18-0.69-0.46-0.96-0.82l-7.27-9.75c-0.27-0.37-0.56-0.62-0.87-0.76c-0.31-0.14-0.76-0.2-1.34-0.16l-2.21,0.13
					l0.48,8.04c0.55,0.06,0.99,0.11,1.3,0.15c0.32,0.04,0.54,0.06,0.66,0.08c0.12,0.01,0.21,0.03,0.28,0.03
					c0.74,0.11,1.13,0.55,1.18,1.31l0.15,2.58l-3.31,0.2l-5.9,0.35l-3.32,0.2l-0.15-2.58c-0.04-0.76,0.29-1.24,1.02-1.44
					c0.06-0.01,0.15-0.04,0.27-0.07c0.12-0.03,0.33-0.08,0.65-0.16c0.31-0.07,0.74-0.18,1.28-0.31l-1.37-23
					c-0.55-0.06-0.99-0.11-1.31-0.15c-0.32-0.04-0.54-0.07-0.66-0.08c-0.12-0.02-0.21-0.03-0.28-0.03c-0.74-0.11-1.13-0.55-1.18-1.3
					l-0.15-2.58l3.32-0.2l9.35-0.56c2.16-0.13,4.03-0.02,5.59,0.34c1.57,0.36,2.87,0.9,3.9,1.65c1.03,0.75,1.81,1.66,2.34,2.75
					c0.53,1.09,0.83,2.31,0.91,3.65c0.06,1.07-0.03,2.08-0.29,3.05c-0.26,0.97-0.66,1.86-1.21,2.67c-0.55,0.81-1.24,1.53-2.07,2.17
					c-0.83,0.64-1.79,1.16-2.88,1.58c0.77,0.38,1.45,0.95,2.04,1.7l5.43,7.06c0.55,0.07,1.01,0.11,1.37,0.15
					c0.36,0.04,0.62,0.06,0.78,0.07c0.16,0.01,0.27,0.02,0.34,0.03C497.41,320.05,497.81,320.49,497.85,321.24z M486.09,306.29
					c0.51-0.52,0.87-1.12,1.09-1.81c0.22-0.69,0.31-1.43,0.26-2.24c-0.1-1.61-0.7-2.81-1.81-3.61c-1.11-0.8-2.75-1.13-4.93-1
					l-3.46,0.21l0.63,10.52l3.37-0.2c1.11-0.07,2.07-0.26,2.88-0.59C484.93,307.23,485.58,306.81,486.09,306.29z"/>
			</g>
			<g>
				<path class="st0" d="M534.15,325.8l-0.39,2.55l-3.29-0.5l-5.36-0.82l2.16-14.18c0.21-1.36,0.05-2.46-0.46-3.3
					c-0.52-0.84-1.4-1.36-2.66-1.55c-0.93-0.14-1.83-0.07-2.7,0.23c-0.87,0.29-1.73,0.75-2.56,1.36l-1.8,11.81
					c0.53,0.18,0.94,0.32,1.25,0.42c0.3,0.1,0.51,0.18,0.63,0.21c0.12,0.04,0.2,0.07,0.26,0.09c0.7,0.27,1,0.77,0.88,1.52
					l-0.39,2.55l-3.29-0.5l-5.37-0.82l-3.29-0.5l0.39-2.55c0.11-0.75,0.54-1.15,1.29-1.19c0.06,0,0.16,0,0.28-0.01
					s0.34-0.01,0.66-0.02c0.32-0.01,0.76-0.02,1.32-0.03l3.61-23.66c-0.53-0.18-0.94-0.32-1.25-0.43c-0.3-0.1-0.51-0.18-0.63-0.21
					c-0.11-0.04-0.2-0.07-0.26-0.09c-0.7-0.27-0.99-0.78-0.88-1.52l0.39-2.55l3.29,0.5l5.36,0.82l-1.89,12.4
					c0.99-0.69,2.05-1.21,3.17-1.56c1.12-0.35,2.38-0.42,3.79-0.2c1.22,0.19,2.26,0.56,3.14,1.11c0.88,0.55,1.57,1.25,2.09,2.1
					c0.52,0.84,0.86,1.8,1.03,2.89c0.17,1.08,0.16,2.25-0.03,3.5l-1.51,9.88c0.53,0.18,0.94,0.32,1.25,0.42
					c0.31,0.1,0.51,0.18,0.63,0.22c0.11,0.04,0.2,0.07,0.27,0.09C533.97,324.54,534.26,325.05,534.15,325.8z"/>
			</g>
			<g>
				<path class="st0" d="M564.39,314.95c0.97,0.82,1.72,1.79,2.25,2.9c0.52,1.11,0.8,2.34,0.84,3.69c0.03,1.36-0.22,2.8-0.76,4.33
					c-0.14,0.39-0.27,0.7-0.39,0.95c-0.12,0.24-0.26,0.42-0.4,0.53c-0.14,0.11-0.3,0.17-0.47,0.18c-0.17,0.01-0.38-0.03-0.61-0.11
					l-13.12-4.62c-0.62,2.24-0.59,4.04,0.07,5.42c0.66,1.38,1.83,2.37,3.52,2.96c0.83,0.29,1.58,0.44,2.24,0.46
					c0.67,0.02,1.27-0.01,1.8-0.09c0.53-0.08,1-0.15,1.41-0.23c0.41-0.07,0.77-0.05,1.08,0.06c0.21,0.07,0.37,0.18,0.5,0.31
					c0.12,0.14,0.21,0.3,0.27,0.49l0.83,2.39c-0.8,0.46-1.63,0.8-2.49,1c-0.86,0.2-1.72,0.3-2.58,0.3c-0.86,0-1.71-0.08-2.54-0.25
					c-0.83-0.17-1.62-0.38-2.37-0.65c-1.48-0.52-2.76-1.25-3.86-2.19c-1.1-0.94-1.95-2.05-2.55-3.34c-0.6-1.29-0.92-2.74-0.96-4.34
					c-0.04-1.61,0.27-3.34,0.92-5.2c0.51-1.45,1.22-2.73,2.14-3.84c0.92-1.11,1.98-1.99,3.19-2.62c1.21-0.64,2.54-1.01,4-1.12
					c1.46-0.11,2.98,0.12,4.57,0.68C562.26,313.48,563.41,314.13,564.39,314.95z M555.79,316.74c-1.14,0.55-2.1,1.55-2.88,3.01
					l9.6,3.38c0.23-0.66,0.36-1.32,0.39-1.97c0.03-0.65-0.07-1.26-0.28-1.83c-0.22-0.57-0.56-1.09-1.04-1.54
					c-0.48-0.45-1.09-0.81-1.85-1.08C558.24,316.18,556.93,316.19,555.79,316.74z"/>
			</g>
			<g>
				<path class="st0" d="M583.47,345.49l-1.21,2.28l-2.94-1.56l-4.79-2.53l-2.94-1.55l1.21-2.28c0.35-0.67,0.89-0.9,1.61-0.7
					c0.06,0.02,0.15,0.05,0.27,0.08c0.11,0.04,0.33,0.1,0.63,0.2c0.31,0.1,0.72,0.23,1.25,0.4l6.46-12.22
					c-0.44-0.34-0.79-0.61-1.04-0.81c-0.25-0.2-0.43-0.34-0.52-0.41c-0.1-0.07-0.17-0.13-0.22-0.17c-0.57-0.48-0.68-1.06-0.33-1.73
					l1.21-2.28l2.94,1.56l4.79,2.54l-8.5,16.07c0.44,0.34,0.79,0.61,1.04,0.81c0.25,0.2,0.43,0.34,0.52,0.41s0.17,0.13,0.22,0.17
					C583.71,344.24,583.82,344.82,583.47,345.49z M592.77,321.91c-0.36,0.27-0.75,0.47-1.17,0.6s-0.86,0.17-1.32,0.13
					c-0.46-0.04-0.9-0.17-1.33-0.39c-0.41-0.22-0.76-0.51-1.05-0.86c-0.28-0.36-0.49-0.74-0.62-1.16c-0.13-0.42-0.18-0.85-0.15-1.3
					c0.03-0.45,0.15-0.88,0.37-1.29c0.23-0.43,0.52-0.79,0.88-1.08c0.36-0.29,0.75-0.5,1.16-0.63c0.42-0.13,0.85-0.18,1.3-0.14
					c0.45,0.03,0.89,0.16,1.3,0.38c0.43,0.23,0.79,0.52,1.08,0.88c0.29,0.36,0.5,0.75,0.64,1.17c0.13,0.42,0.19,0.86,0.16,1.32
					c-0.03,0.47-0.16,0.91-0.38,1.34C593.42,321.29,593.13,321.64,592.77,321.91z"/>
			</g>
			<g>
				<path class="st0" d="M613.52,366.61l-1.57,2.05l-2.65-2.02l-4.31-3.29l8.7-11.4c0.84-1.09,1.23-2.13,1.18-3.12
					c-0.05-0.99-0.58-1.87-1.59-2.64c-0.74-0.57-1.57-0.93-2.48-1.09c-0.91-0.16-1.88-0.17-2.9-0.03l-7.25,9.49
					c0.38,0.41,0.67,0.73,0.89,0.97c0.22,0.24,0.37,0.4,0.45,0.49c0.08,0.09,0.15,0.16,0.19,0.21c0.49,0.57,0.5,1.15,0.04,1.76
					l-1.57,2.05l-2.64-2.02l-4.31-3.29l-2.65-2.02l1.57-2.05c0.46-0.6,1.03-0.75,1.71-0.42c0.06,0.03,0.14,0.07,0.25,0.13
					c0.11,0.06,0.31,0.16,0.59,0.3c0.29,0.15,0.68,0.35,1.17,0.61l8.39-10.99c-0.38-0.41-0.67-0.73-0.89-0.97
					c-0.22-0.24-0.37-0.4-0.45-0.49c-0.08-0.09-0.15-0.16-0.19-0.21c-0.49-0.57-0.5-1.16-0.04-1.76l1.57-2.05l2.65,2.02l2.64,2.01
					c0.56,0.43,0.72,0.97,0.5,1.63l-0.78,1.64c0.64-0.1,1.28-0.14,1.92-0.14c0.63,0,1.26,0.07,1.87,0.19
					c0.62,0.12,1.23,0.32,1.83,0.59c0.6,0.28,1.21,0.64,1.81,1.1c0.98,0.75,1.72,1.57,2.22,2.49c0.5,0.91,0.78,1.86,0.83,2.84
					c0.05,0.99-0.11,2-0.49,3.03c-0.37,1.03-0.94,2.05-1.71,3.05l-6.06,7.94c0.38,0.41,0.67,0.73,0.89,0.97
					c0.22,0.24,0.37,0.4,0.45,0.49c0.08,0.09,0.14,0.16,0.19,0.21C613.97,365.42,613.98,366,613.52,366.61z"/>
			</g>
		</g>
		<g>
			<g>
				<path class="st0" d="M442.97,694.55l-0.84,2.44l-0.58-0.2l-2.57-0.88l-2.46-0.84c-0.48-0.17-0.86-0.4-1.14-0.72
					c-0.27-0.31-0.47-0.68-0.58-1.13l-3.02-11.78c-0.11-0.44-0.28-0.79-0.51-1.04c-0.23-0.25-0.63-0.47-1.18-0.66l-2.1-0.72
					l-2.61,7.62c0.49,0.27,0.87,0.48,1.15,0.64c0.28,0.15,0.47,0.26,0.58,0.32c0.11,0.06,0.19,0.11,0.24,0.14
					c0.64,0.39,0.84,0.94,0.59,1.65l-0.84,2.44l-3.14-1.08l-5.59-1.91l-3.15-1.08l0.84-2.44c0.24-0.72,0.74-1.03,1.48-0.94
					c0.07,0.01,0.16,0.02,0.28,0.04c0.12,0.02,0.34,0.05,0.66,0.1c0.32,0.05,0.75,0.12,1.3,0.2l7.47-21.8
					c-0.49-0.27-0.87-0.48-1.15-0.64c-0.28-0.16-0.47-0.26-0.58-0.32c-0.11-0.06-0.19-0.1-0.24-0.14c-0.64-0.39-0.84-0.94-0.59-1.65
					l0.84-2.44l3.15,1.08l8.87,3.04c2.05,0.7,3.73,1.52,5.05,2.44c1.32,0.92,2.31,1.93,2.99,3.01c0.67,1.08,1.05,2.23,1.12,3.44
					c0.07,1.21-0.11,2.45-0.55,3.73c-0.35,1.01-0.82,1.91-1.43,2.71c-0.61,0.8-1.32,1.47-2.13,2.01c-0.81,0.54-1.73,0.95-2.74,1.22
					c-1.01,0.27-2.1,0.39-3.27,0.37c0.57,0.64,0.98,1.43,1.24,2.35l2.34,8.59c0.49,0.27,0.89,0.49,1.21,0.66
					c0.32,0.17,0.55,0.29,0.69,0.36c0.14,0.07,0.24,0.12,0.3,0.16C443.02,693.28,443.21,693.84,442.97,694.55z M437.77,676.24
					c0.66-0.29,1.23-0.71,1.7-1.26c0.47-0.55,0.83-1.21,1.09-1.97c0.52-1.52,0.42-2.87-0.3-4.03c-0.72-1.16-2.12-2.1-4.18-2.8
					l-3.28-1.13l-3.42,9.97l3.2,1.1c1.05,0.36,2.01,0.54,2.89,0.55C436.34,676.68,437.11,676.54,437.77,676.24z"/>
			</g>
			<g>
				<path class="st0" d="M479.66,700.66l-0.36,2.56l-3.3-0.46l-3.28-0.46c-0.7-0.1-1.11-0.49-1.23-1.17l-0.12-1.84
					c-0.53,0.4-1.07,0.76-1.61,1.07c-0.55,0.32-1.12,0.57-1.71,0.76c-0.6,0.19-1.23,0.32-1.89,0.38c-0.67,0.06-1.37,0.04-2.11-0.06
					c-1.22-0.17-2.27-0.53-3.14-1.07c-0.88-0.55-1.58-1.24-2.12-2.08c-0.53-0.84-0.89-1.81-1.07-2.89
					c-0.18-1.08-0.18-2.25-0.01-3.49l1.38-9.87c-1.81-0.59-1.83-0.6-2.15-0.7c-0.7-0.26-1-0.76-0.9-1.51l0.36-2.56l3.3,0.46
					l5.37,0.75l-1.98,14.18c-0.19,1.36-0.02,2.46,0.5,3.3c0.53,0.83,1.42,1.34,2.68,1.52c0.93,0.13,1.83,0.04,2.7-0.26
					c0.87-0.3,1.72-0.76,2.54-1.38l1.65-11.83c-1.8-0.58-1.82-0.59-2.15-0.7c-0.7-0.26-1-0.76-0.9-1.51l0.36-2.56l3.29,0.46l0.01,0
					l5.37,0.75l-2.52,18.01c1.81,0.59,1.83,0.6,2.15,0.7C479.46,699.41,479.76,699.91,479.66,700.66z"/>
			</g>
			<g>
				<path class="st0" d="M517.86,699.82l0.14,2.58l-3.32,0.17l-5.42,0.28l-0.75-14.32c-0.07-1.37-0.45-2.42-1.12-3.14
					c-0.68-0.72-1.65-1.05-2.92-0.98c-0.94,0.05-1.8,0.31-2.6,0.77c-0.8,0.47-1.54,1.09-2.23,1.85l0.63,11.92
					c0.55,0.07,0.99,0.12,1.31,0.16c0.32,0.04,0.54,0.07,0.66,0.08c0.12,0.02,0.21,0.03,0.28,0.04c0.74,0.12,1.13,0.56,1.17,1.32
					l0.14,2.58l-3.32,0.17l-5.42,0.28l-3.32,0.17l-0.13-2.58c-0.04-0.76,0.3-1.23,1.03-1.43c0.06-0.01,0.15-0.04,0.27-0.06
					c0.12-0.03,0.33-0.08,0.65-0.15c0.31-0.07,0.74-0.17,1.29-0.3l-1.25-23.89c-0.55-0.07-0.99-0.12-1.31-0.16
					c-0.32-0.04-0.54-0.07-0.66-0.09c-0.12-0.01-0.21-0.03-0.28-0.03c-0.74-0.12-1.13-0.56-1.17-1.31l-0.14-2.58l3.32-0.17
					l5.42-0.28l0.66,12.52c0.83-0.88,1.76-1.6,2.79-2.17c1.03-0.57,2.25-0.89,3.67-0.96c1.23-0.06,2.33,0.09,3.3,0.45
					c0.97,0.37,1.8,0.91,2.47,1.63c0.67,0.72,1.2,1.59,1.59,2.62c0.38,1.03,0.61,2.17,0.68,3.43l0.52,9.97
					c0.55,0.07,0.99,0.12,1.31,0.16c0.32,0.04,0.54,0.07,0.66,0.08c0.12,0.02,0.21,0.03,0.28,0.04
					C517.43,698.63,517.82,699.07,517.86,699.82z"/>
			</g>
			<g>
				<path class="st0" d="M542.21,674.87l0.2,4.12c0.02,0.27-0.04,0.47-0.15,0.61c-0.12,0.14-0.3,0.24-0.54,0.29
					c-0.21,0.05-0.52,0.06-0.91,0.05c-0.39-0.02-0.9,0.04-1.51,0.18c-1.1,0.25-1.98,0.76-2.62,1.54c-0.65,0.78-1.12,1.82-1.39,3.11
					l2.12,9.45c1.9-0.09,1.92-0.08,2.26-0.1c0.75-0.01,1.21,0.36,1.37,1.1l0.56,2.52l-3.24,0.73h0l-5.29,1.19l-3.25,0.73l-0.57-2.52
					c-0.16-0.74,0.09-1.27,0.77-1.58c0.32-0.13,0.33-0.14,2.09-0.88l-3.02-13.49c-1.9,0.09-1.92,0.08-2.26,0.1
					c-0.75,0.01-1.21-0.36-1.37-1.1l-0.56-2.52l3.25-0.73l0,0l3.11-0.7c0.54-0.12,0.94-0.11,1.2,0.04c0.26,0.15,0.48,0.46,0.66,0.93
					l0.92,2.59c0.48-1.53,1.16-2.81,2.04-3.83c0.88-1.02,1.98-1.68,3.29-1.98C540.43,674.49,541.39,674.53,542.21,674.87z"/>
			</g>
			<g>
				<path class="st0" d="M589.79,668.31c0.64,1.28,1.02,2.59,1.14,3.93c0.12,1.34-0.03,2.64-0.46,3.89
					c-0.43,1.25-1.13,2.42-2.11,3.51c-0.98,1.09-2.26,2.02-3.83,2.81c-0.16,0.08-0.36,0.18-0.59,0.28c-2.52,1.26-5.49,2.12-8.9,2.58
					l-0.35-0.7l-3.3-6.61l0.17-0.08l0.48-0.24l1.62-0.81c0.51-0.25,0.93-0.16,1.28,0.27c0.24,0.33,0.9,1.35,1.97,3.07
					c1.31-0.22,3.18-0.94,5.63-2.16c1.51-0.75,2.49-1.69,2.96-2.82c0.47-1.12,0.37-2.36-0.3-3.69c-0.37-0.75-0.86-1.26-1.47-1.55
					c-0.61-0.29-1.3-0.43-2.08-0.45c-0.77-0.01-1.61,0.07-2.51,0.24c-0.91,0.17-1.83,0.33-2.76,0.47c-0.94,0.14-1.9,0.23-2.87,0.25
					c-0.97,0.03-1.91-0.1-2.82-0.38c-0.91-0.28-1.77-0.77-2.59-1.47c-0.81-0.7-1.55-1.7-2.19-2.99c-0.52-1.03-0.81-2.15-0.89-3.33
					c-0.08-1.19,0.09-2.36,0.5-3.51c0.41-1.16,1.08-2.25,2-3.28c0.93-1.03,2.13-1.92,3.61-2.66c2.79-1.39,5.77-2.21,8.96-2.46
					l3.63,7.27l-0.17,0.08l-0.48,0.24l-1.62,0.81c-0.51,0.25-0.93,0.16-1.28-0.27c-0.24-0.33-0.89-1.33-1.94-3.01
					c-1.21,0.05-2.84,0.59-4.9,1.62c-0.73,0.37-1.33,0.77-1.78,1.22c-0.46,0.45-0.79,0.92-1.01,1.42c-0.22,0.5-0.31,1.02-0.27,1.55
					c0.04,0.53,0.19,1.06,0.45,1.58c0.33,0.67,0.8,1.13,1.39,1.39c0.59,0.26,1.28,0.39,2.05,0.4c0.77,0.01,1.61-0.06,2.52-0.2
					c0.91-0.14,1.84-0.28,2.8-0.41c0.96-0.13,1.93-0.2,2.9-0.22c0.97-0.02,1.91,0.1,2.81,0.36c0.9,0.26,1.74,0.71,2.53,1.35
					C588.51,666.22,589.2,667.13,589.79,668.31z"/>
			</g>
			<g>
				<path class="st0" d="M606.95,667.49c-1.5-0.31-2.8-1.26-3.91-2.85l-7.19-10.32l-1.87,1.3c-0.24,0.17-0.5,0.23-0.78,0.2
					c-0.28-0.04-0.53-0.21-0.75-0.52l-1.23-1.76l2.63-2.56l-2.57-5.7c-0.12-0.27-0.14-0.54-0.06-0.79c0.08-0.25,0.25-0.47,0.52-0.66
					l2.31-1.6l4.05,5.82l4.86-3.39l2.21,3.17l-4.86,3.39l6.97,10.02c0.4,0.58,0.86,0.92,1.37,1.05c0.51,0.12,1.01,0.02,1.49-0.32
					c0.28-0.19,0.48-0.39,0.62-0.58c0.14-0.2,0.25-0.38,0.34-0.55c0.09-0.17,0.16-0.32,0.23-0.46c0.06-0.14,0.15-0.25,0.25-0.32
					c0.13-0.09,0.26-0.13,0.39-0.13c0.13,0.01,0.29,0.04,0.48,0.11l2.84,1.23c-0.27,0.99-0.73,1.92-1.38,2.78
					c-0.65,0.86-1.42,1.61-2.32,2.23C609.99,667.39,608.44,667.79,606.95,667.49z"/>
			</g>
			<g>
				<path class="st0" d="M638.79,639.2l1.77,1.88l-1.99,1.87l-0.44,0.41l-1.34,1.26c-0.37,0.35-0.72,0.57-1.04,0.66
					c-0.32,0.09-0.69,0.01-1.12-0.23l-1.45-0.84c-0.07,0.77-0.16,1.48-0.3,2.14c-0.13,0.66-0.32,1.28-0.57,1.88
					c-0.25,0.59-0.56,1.16-0.95,1.71c-0.39,0.55-0.88,1.1-1.46,1.65c-0.69,0.65-1.42,1.16-2.18,1.53c-0.76,0.36-1.53,0.56-2.3,0.58
					c-0.77,0.02-1.54-0.13-2.3-0.47c-0.76-0.33-1.48-0.87-2.18-1.61c-0.59-0.62-1-1.38-1.24-2.3c-0.24-0.91-0.22-1.96,0.08-3.16
					c0.3-1.2,0.93-2.55,1.88-4.06c0.95-1.51,2.36-3.14,4.23-4.89l-0.91-0.97c-1.04-1.11-2.04-1.71-3.01-1.8
					c-0.96-0.09-1.89,0.27-2.77,1.11c-0.64,0.6-1.1,1.18-1.39,1.73c-0.29,0.55-0.5,1.07-0.64,1.55c-0.14,0.48-0.27,0.92-0.4,1.32
					c-0.13,0.4-0.35,0.75-0.67,1.05c-0.27,0.25-0.56,0.4-0.88,0.44c-0.32,0.04-0.64,0.02-0.95-0.08l-1.91-0.58
					c0.26-3.5,1.72-6.51,4.39-9.02c0.96-0.9,1.96-1.55,3.01-1.94c1.05-0.39,2.09-0.56,3.14-0.49c1.05,0.07,2.08,0.36,3.08,0.89
					c1,0.52,1.94,1.25,2.81,2.17l6.84,7.27c0.43-0.28,0.75-0.49,0.99-0.64c0.23-0.15,0.37-0.24,0.4-0.26
					C637.69,638.57,638.27,638.65,638.79,639.2z M628.17,639.63c-1.15,1.08-2.05,2.06-2.68,2.93c-0.64,0.87-1.08,1.64-1.34,2.31
					c-0.26,0.67-0.34,1.24-0.26,1.73c0.09,0.49,0.29,0.91,0.63,1.26c0.66,0.7,1.33,1,2.03,0.92c0.69-0.09,1.37-0.44,2.03-1.06
					c0.41-0.38,0.74-0.77,1.02-1.16c0.27-0.4,0.49-0.81,0.66-1.24c0.16-0.43,0.29-0.89,0.37-1.37c0.08-0.48,0.13-1,0.14-1.57
					L628.17,639.63z"/>
			</g>
			<g>
				<path class="st0" d="M638.07,608.7c0.67-0.55,1.37-1,2.1-1.32l3.93-5.15l1.61,1.23c0.27,0.2,0.42,0.43,0.47,0.69
					c0.04,0.26-0.03,0.57-0.23,0.96l-0.93,1.83c0.39,0.11,0.78,0.27,1.17,0.46c0.39,0.19,0.77,0.43,1.14,0.72
					c0.88,0.68,1.55,1.46,1.99,2.36c0.45,0.9,0.68,1.86,0.71,2.86c0.03,1.01-0.15,2.04-0.53,3.1c-0.38,1.06-0.95,2.1-1.72,3.1
					c-0.52,0.68-1.08,1.28-1.7,1.83c-0.09,0.82,0.07,1.38,0.49,1.7c0.36,0.28,0.75,0.31,1.17,0.11c0.42-0.2,0.87-0.55,1.36-1.04
					c0.48-0.49,0.99-1.07,1.54-1.74c0.54-0.67,1.12-1.35,1.73-2.03c0.61-0.68,1.25-1.3,1.92-1.88c0.67-0.57,1.37-1.01,2.09-1.32
					c0.73-0.3,1.49-0.41,2.28-0.33c0.79,0.08,1.62,0.45,2.47,1.09c0.79,0.61,1.41,1.39,1.86,2.34c0.45,0.96,0.68,2.03,0.7,3.21
					c0.02,1.18-0.2,2.45-0.67,3.79c-0.46,1.34-1.22,2.7-2.26,4.07c-1.04,1.36-2.07,2.44-3.1,3.24c-1.03,0.8-2.01,1.36-2.95,1.69
					c-0.94,0.33-1.82,0.43-2.64,0.32c-0.82-0.11-1.54-0.4-2.15-0.87c-0.84-0.64-1.35-1.43-1.53-2.38c-0.18-0.95-0.09-2,0.26-3.17
					c-0.58,0.25-1.18,0.36-1.79,0.32c-0.61-0.04-1.24-0.31-1.9-0.81c-0.27-0.2-0.51-0.46-0.72-0.77c-0.21-0.31-0.39-0.67-0.52-1.07
					c-0.13-0.4-0.21-0.85-0.24-1.33c-0.03-0.48,0.01-1,0.11-1.54c-1.18,0.53-2.38,0.75-3.59,0.65c-1.21-0.1-2.36-0.57-3.46-1.41
					c-0.88-0.68-1.55-1.46-1.99-2.37c-0.44-0.9-0.68-1.86-0.7-2.88c-0.02-1.02,0.16-2.07,0.56-3.14c0.39-1.07,0.98-2.12,1.76-3.14
					C636.77,609.91,637.4,609.25,638.07,608.7z M645.87,615.86c0.16-0.51,0.21-0.99,0.15-1.45c-0.06-0.46-0.21-0.89-0.47-1.3
					c-0.26-0.41-0.6-0.78-1.03-1.11c-0.89-0.68-1.79-0.95-2.71-0.81c-0.92,0.13-1.79,0.73-2.6,1.79c-0.81,1.06-1.16,2.05-1.04,2.98
					c0.11,0.92,0.61,1.73,1.5,2.4c0.42,0.32,0.86,0.55,1.32,0.69c0.46,0.14,0.93,0.18,1.39,0.12c0.46-0.06,0.92-0.24,1.37-0.53
					c0.45-0.29,0.88-0.7,1.28-1.22C645.43,616.89,645.71,616.37,645.87,615.86z M657.73,620.14c-0.38,0.04-0.77,0.2-1.17,0.46
					c-0.4,0.27-0.81,0.62-1.24,1.06c-0.43,0.44-0.86,0.92-1.3,1.44c-0.44,0.52-0.9,1.06-1.37,1.61c-0.47,0.55-0.94,1.07-1.42,1.55
					c-0.11,0.69-0.09,1.33,0.05,1.91c0.14,0.58,0.45,1.05,0.93,1.41c0.32,0.24,0.67,0.39,1.06,0.44c0.39,0.05,0.82-0.02,1.28-0.21
					c0.46-0.19,0.95-0.52,1.48-0.98c0.53-0.46,1.09-1.09,1.7-1.88c0.61-0.8,1.08-1.54,1.4-2.22c0.32-0.68,0.52-1.29,0.59-1.83
					c0.07-0.54,0.03-1.01-0.14-1.42c-0.16-0.4-0.42-0.73-0.77-1C658.48,620.21,658.11,620.1,657.73,620.14z"/>
			</g>
			<g>
				<path class="st0" d="M654.97,582.29c0.96-0.84,2.03-1.43,3.21-1.78c1.18-0.35,2.44-0.44,3.78-0.27
					c1.34,0.17,2.73,0.64,4.17,1.41c0.36,0.19,0.65,0.37,0.87,0.53c0.22,0.16,0.38,0.32,0.47,0.47c0.09,0.16,0.13,0.32,0.11,0.5
					c-0.02,0.17-0.09,0.37-0.2,0.59l-6.58,12.27c2.12,0.95,3.91,1.21,5.37,0.76c1.47-0.44,2.62-1.45,3.47-3.03
					c0.42-0.78,0.68-1.49,0.8-2.15c0.12-0.66,0.18-1.26,0.19-1.79c0.01-0.54,0-1.01-0.01-1.42c-0.01-0.41,0.06-0.77,0.22-1.07
					c0.11-0.19,0.23-0.34,0.39-0.44c0.15-0.1,0.33-0.17,0.53-0.19l2.49-0.46c0.33,0.86,0.54,1.73,0.6,2.62
					c0.07,0.88,0.03,1.75-0.1,2.6c-0.13,0.85-0.35,1.68-0.64,2.47s-0.63,1.54-1,2.24c-0.74,1.38-1.66,2.54-2.75,3.48
					c-1.09,0.94-2.33,1.61-3.69,2.01c-1.37,0.4-2.85,0.49-4.44,0.29c-1.59-0.2-3.26-0.77-5-1.71c-1.35-0.73-2.51-1.63-3.47-2.71
					c-0.96-1.08-1.66-2.27-2.11-3.56c-0.44-1.29-0.61-2.67-0.49-4.13s0.57-2.93,1.37-4.41
					C653.19,584.17,654.01,583.12,654.97,582.29z M655.43,591.06c0.37,1.21,1.21,2.31,2.54,3.3l4.81-8.98
					c-0.62-0.33-1.25-0.56-1.89-0.69c-0.64-0.13-1.26-0.13-1.86,0c-0.6,0.13-1.16,0.39-1.68,0.79c-0.52,0.4-0.97,0.96-1.35,1.67
					C655.25,588.55,655.06,589.85,655.43,591.06z"/>
			</g>
		</g>
	</g>
</g>
</svg>
